<?xml version="1.0" encoding="utf-8"?>
<!-- Generator: Adobe Illustrator 23.0.2, SVG Export Plug-In . SVG Version: 6.00 Build 0)  -->
<svg version="1.1" id="Layer_1" xmlns="http://www.w3.org/2000/svg" xmlns:xlink="http://www.w3.org/1999/xlink" x="0px" y="0px"
	 viewBox="0 0 500 500" style="enable-background:new 0 0 500 500;" xml:space="preserve">
<style type="text/css">
	.st0{fill:#FCF5A2;}
	.st1{fill:#143156;}
</style>
<g>
	<path class="st0" d="M252.08,490.09c137.29-1.31,247.56-109.86,246.29-242.44C497.11,115.06,384.79,8.64,247.5,9.95
		S-0.06,119.81,1.2,252.39C2.47,384.98,114.79,491.4,252.08,490.09"/>
	<path class="st1" d="M247.92,280.87c0,0-14.79-14.84-16.9-34.23c-2.11-19.31,8.64-24.6,16.33-25.1c0,0,16.14-0.83,17.73,16.4
		C265.08,237.94,266.53,258.18,247.92,280.87 M344.07,210.74c-1.75,9.05-12.2,28.07-19.38,39.02c-4.21,5.73-11.79,18.69-16.15,26.35
		l-0.17,0.17l-0.08,0.17c-5.59,10.35-9.18,20.34-11.43,29.82l-14.61,0.15c0,0-7.6-3.7-18.3-11.22c0,0,15.62-16.36,21.07-41.68
		c0.46-2.15,0.89-4.17,1.15-6.65c0,0,1.09-4.69,0.56-11.2c-0.57-6.93-2.98-15.91-10.52-23.52c0,0-10.74-12.03-27.73-12.04
		c-18.66-0.16-29,12.5-29,12.5c-14.09,14.61-9.69,36.67-9.69,36.67c2.51,26.34,22.71,46.9,22.71,46.9
		c-13.47,9.17-17.64,10.63-17.64,10.63l-12.64,0.12c-2.43-9.35-6.13-19.19-11.91-29.35l-0.09-0.17l-0.17-0.17
		c-4.51-7.57-12.33-20.39-16.65-26.03c-7.21-10.56-18.19-29.7-20.03-38.64c-2.9-14.12-7.81-37.67,15.19-73.71
		c0.99-1.6,24.82-38.73,78.71-39.92l0.5,0c54.06,0.15,78.6,36.82,79.53,38.24l0.17,0.25l0.17,0.25
		C351.08,172.93,346.7,196.57,344.07,210.74 M293.42,357.26c0.04,4.27-0.85,7.54-1.75,9.73l-83.01,0.79
		c-0.94-2.17-1.89-5.42-1.93-9.69c-0.02-1.84,0.05-3.76,0.03-5.86c0.02-6.7,0.11-14.73-0.81-23.76l87.7-0.84
		c-0.22,2.76-0.37,5.36-0.43,7.87l-43.26,0.41l-0.17,0c-5.86,0.14-10.5,4.95-10.44,10.73c0.06,5.86,4.79,10.58,10.65,10.61l0.17,0
		l43.26-0.41L293.42,357.26z M267.57,393.16l-0.41,0.51l-0.41,0.42c-5.46,6.41-15.92,7.01-15.92,7.01l-0.42,0
		c-0.08,0-10.63-0.32-16.3-6.71l-0.42-0.41l-0.42-0.5l-4.56-4.56l43.35-0.41L267.57,393.16z M345.77,125.61
		c0,0-30.34-48.25-98.04-48.44l-0.67,0.01c-67.69,1.49-97.02,50.3-97.02,50.3c-26.88,42.1-21.66,71.68-18.06,89.47
		c3.68,17.71,23.88,47.14,23.88,47.14c3.47,4.15,15.55,24.29,15.55,24.29c15.58,27.38,13.39,52.85,13.56,69.92
		c0.16,17.16,8.96,26.78,8.96,26.78l23.99,23.87c12.6,14.11,32.18,13.92,32.44,13.92l0.67-0.01c0.08,0,5.1-0.05,11.53-1.87
		c6.51-1.9,14.51-5.5,20.72-12.67l23.45-24.33c0,0,8.61-9.79,8.45-26.94c-0.16-17.07-2.83-42.49,12.22-70.16
		c0,0,11.69-20.36,15.16-24.58c0,0,19.55-29.81,22.89-47.59c2.63-14.39,6.4-36.86-6.76-66.63
		C355.52,140.9,351.66,133.48,345.77,125.61"/>
	<path class="st1" d="M332.86,167.24l0,0.33c0.06,5.94-4.67,10.76-10.61,10.81c-4.27,0.04-7.89-2.43-9.6-6.02l-0.17,0
		c-5.3-11.92-9.79-17.48-21.01-26.58c-9.45-7.77-22.63-12.42-26.49-13.64c-0.67-0.24-1.09-0.32-1.09-0.32
		c-4.28-1.3-7.42-5.29-7.46-10.06c-0.06-5.86,4.67-10.67,10.53-10.73c0,0,1.5-0.94,14.6,4.38c12.52,5.07,21.62,12.18,23.31,13.5
		c1.69,1.24,9.95,8.19,15.29,14.67c3.81,4.73,9.76,13.8,11.82,19.89c0.26,0.58,0.51,1.25,0.6,1.92
		C332.77,165.99,332.86,166.66,332.86,167.24"/>
</g>
</svg>
